<?xml version="1.0" encoding="utf-8"?>
<!-- Generator: Adobe Illustrator 25.4.1, SVG Export Plug-In . SVG Version: 6.00 Build 0)  -->
<svg version="1.1" id="Слой_1" xmlns:svgjs="http://svgjs.com/svgjs"
	 xmlns="http://www.w3.org/2000/svg" xmlns:xlink="http://www.w3.org/1999/xlink" x="0px" y="0px" viewBox="0 0 512 512"
	 style="enable-background:new 0 0 512 512;" xml:space="preserve">
<style type="text/css">
	.st0{fill:#4FBA6F;}
	.st1{fill:#FFD15C;}
</style>
<path class="st0" d="M424.7,293.9V394c0,6.3-5.1,11.5-11.5,11.5H180.5v94.9c0,10.2-12.4,15.4-19.6,8.1L4.4,352.1
	c-4.5-4.5-4.5-11.8,0-16.3l156.5-156.5c7.2-7.2,19.6-2.1,19.6,8.1v94.9h232.7C419.5,282.4,424.7,287.6,424.7,293.9z"/>
<path class="st1" d="M507.6,176.1L351.2,332.6c-7.2,7.2-19.6,2.1-19.6-8.1v-94.9H98.8c-6.3,0-11.5-5.1-11.5-11.5V117.9
	c0-6.3,5.2-11.5,11.5-11.5h232.7V11.5c0-10.2,12.4-15.4,19.6-8.1l156.5,156.5C512.1,164.4,512.1,171.6,507.6,176.1z"/>
<path class="st0" d="M180.5,244.7v-57.1c0-10.2-12.4-15.4-19.6-8.1l-65.3,65.3h84.9V244.7z"/>
</svg>
